# Blender v2.82 (sub 7) OBJ File: 'checkpoint.blend'
# www.blender.org
mtllib checkpoint.mtl
o Plane
v -12.135204 -0.244908 0.708962
v 12.135204 -0.244908 0.708962
v -12.135204 -0.244908 -0.708962
v 12.135204 -0.244908 -0.708962
v -12.135204 0.423985 -0.708962
v -12.135204 0.423985 0.708962
v 12.135204 0.423985 0.708962
v 12.135204 0.423985 -0.708962
vt 0.000610 0.000609
vt 3.708378 0.000610
vt 3.708377 9.999391
vt 0.000609 9.999391
vt 33.371098 5.009651
vt 0.002033 5.009651
vt 0.002032 0.000825
vt 33.371098 0.000823
vt 11.950716 0.999534
vt 0.000346 0.999536
vt 0.000346 0.000346
vt 11.950716 0.000347
vt 11.988828 1.002721
vt 0.000347 1.002724
vt 0.000347 0.000347
vt 11.988828 0.000347
vt 0.000567 0.000602
vt 32.179550 0.000567
vt 32.179550 0.998278
vt 0.000568 0.998235
vt 32.307316 0.000569
vt 32.307316 1.002241
vt 0.000570 1.002195
vn 0.0000 -1.0000 0.0000
vn 0.0000 1.0000 0.0000
vn 1.0000 0.0000 0.0000
vn -1.0000 0.0000 0.0000
vn 0.0000 0.0000 -1.0000
vn 0.0000 0.0000 1.0000
usemtl None
s off
f 1/1/1 3/2/1 4/3/1 2/4/1
f 6/5/2 7/6/2 8/7/2 5/8/2
f 2/9/3 4/10/3 8/11/3 7/12/3
f 3/13/4 1/14/4 6/15/4 5/16/4
f 4/17/5 3/18/5 5/19/5 8/20/5
f 1/1/6 2/21/6 7/22/6 6/23/6
