# Blender v2.79 (sub 0) OBJ File: ''
# www.blender.org
mtllib groundsphere2.mtl
o sphere3_default
v 0.382683 0.925643 0.000000
v 0.707107 0.708870 0.000000
v 0.653281 0.708870 -0.270598
v 0.353553 0.925643 -0.146447
v 0.000000 1.001763 0.000000
v 0.353553 0.925643 0.146447
v 0.653281 0.708870 0.270598
v 0.270598 0.925643 0.270598
v 0.500000 0.708870 0.500000
v 0.146447 0.925643 0.353553
v 0.270598 0.708870 0.653282
v 0.000000 0.925643 0.382684
v 0.000000 0.708870 0.707107
v -0.146447 0.925643 0.353553
v -0.270598 0.708870 0.653282
v -0.270598 0.925643 0.270598
v -0.500000 0.708870 0.500000
v -0.353553 0.925643 0.146447
v -0.653281 0.708870 0.270598
v -0.382683 0.925643 0.000000
v -0.707107 0.708870 0.000000
v -0.353553 0.925643 -0.146447
v -0.653281 0.708870 -0.270598
v -0.270598 0.925643 -0.270598
v -0.500000 0.708870 -0.500000
v -0.146447 0.925643 -0.353553
v -0.270598 0.708870 -0.653281
v -0.000000 0.925643 -0.382683
v -0.000000 0.708870 -0.707107
v 0.146447 0.925643 -0.353553
v 0.270598 0.708870 -0.653281
v 0.270598 0.925643 -0.270598
v 0.500000 0.708870 -0.500000
v 0.923880 0.384447 0.000000
v 0.853553 0.384447 -0.353553
v 0.853553 0.384446 0.353553
v 0.653281 0.384446 0.653282
v 0.353553 0.384446 0.853553
v 0.000000 0.384446 0.923880
v -0.353553 0.384446 0.853553
v -0.653281 0.384446 0.653282
v -0.853553 0.384446 0.353553
v -0.923880 0.384447 0.000000
v -0.853553 0.384447 -0.353553
v -0.653281 0.384447 -0.653281
v -0.353553 0.384447 -0.853553
v -0.000000 0.384447 -0.923879
v 0.353553 0.384447 -0.853553
v 0.653281 0.384447 -0.653281
v 1.000000 0.001763 0.000000
v 0.923880 0.001763 -0.382683
v 0.923880 0.001763 0.382683
v 0.707107 0.001763 0.707107
v 0.382683 0.001763 0.923880
v 0.000000 0.001763 1.000000
v -0.382683 0.001763 0.923880
v -0.707107 0.001763 0.707107
v -0.923880 0.001763 0.382683
v -1.000000 0.001763 0.000000
v -0.923880 0.001763 -0.382683
v -0.707107 0.001763 -0.707107
v -0.382683 0.001763 -0.923879
v -0.000000 0.001763 -1.000000
v 0.382683 0.001763 -0.923879
v 0.707107 0.001763 -0.707107
v 0.923880 -0.380920 0.000000
v 0.853553 -0.380920 -0.353553
v 0.853553 -0.380920 0.353553
v 0.653281 -0.380920 0.653282
v 0.353553 -0.380920 0.853553
v 0.000000 -0.380920 0.923880
v -0.353553 -0.380920 0.853553
v -0.653281 -0.380920 0.653282
v -0.853553 -0.380920 0.353553
v -0.923880 -0.380920 0.000000
v -0.853553 -0.380920 -0.353553
v -0.653281 -0.380920 -0.653281
v -0.353553 -0.380920 -0.853553
v -0.000000 -0.380920 -0.923879
v 0.353553 -0.380920 -0.853553
v 0.653281 -0.380920 -0.653281
v 0.707107 -0.705344 0.000000
v 0.653281 -0.705344 -0.270598
v 0.653281 -0.705344 0.270598
v 0.500000 -0.705344 0.500000
v 0.270598 -0.705344 0.653281
v 0.000000 -0.705344 0.707107
v -0.270598 -0.705344 0.653281
v -0.500000 -0.705344 0.500000
v -0.653281 -0.705344 0.270598
v -0.707107 -0.705344 0.000000
v -0.653281 -0.705344 -0.270598
v -0.500000 -0.705344 -0.500000
v -0.270598 -0.705344 -0.653281
v -0.000000 -0.705344 -0.707107
v 0.270598 -0.705344 -0.653281
v 0.500000 -0.705344 -0.500000
v 0.382683 -0.922116 0.000000
v 0.353553 -0.922116 -0.146447
v 0.353553 -0.922116 0.146447
v 0.270598 -0.922116 0.270598
v 0.146447 -0.922116 0.353553
v 0.000000 -0.922116 0.382683
v -0.146447 -0.922116 0.353553
v -0.270598 -0.922116 0.270598
v -0.353553 -0.922116 0.146447
v -0.382683 -0.922116 0.000000
v -0.353553 -0.922116 -0.146447
v -0.270598 -0.922116 -0.270598
v -0.146447 -0.922116 -0.353553
v -0.000000 -0.922116 -0.382683
v 0.146447 -0.922116 -0.353553
v 0.270598 -0.922116 -0.270598
v 0.000000 -0.998237 0.000000
vn 0.3822 0.9241 -0.0000
vn 0.7066 0.7076 -0.0000
vn 0.6528 0.7076 -0.2704
vn 0.3531 0.9241 -0.1463
vn -0.0000 1.0000 -0.0000
vn 0.3531 0.9241 0.1463
vn 0.6528 0.7076 0.2704
vn 0.2702 0.9241 0.2702
vn 0.4996 0.7076 0.4996
vn 0.1463 0.9241 0.3531
vn 0.2704 0.7076 0.6528
vn -0.0000 0.9241 0.3822
vn 0.0000 0.7076 0.7066
vn -0.1463 0.9241 0.3531
vn -0.2704 0.7076 0.6528
vn -0.2702 0.9241 0.2702
vn -0.4996 0.7076 0.4996
vn -0.3531 0.9241 0.1463
vn -0.6528 0.7076 0.2704
vn -0.3822 0.9241 -0.0000
vn -0.7066 0.7076 0.0000
vn -0.3531 0.9241 -0.1463
vn -0.6528 0.7076 -0.2704
vn -0.2702 0.9241 -0.2702
vn -0.4996 0.7076 -0.4996
vn -0.1463 0.9241 -0.3531
vn -0.2704 0.7076 -0.6528
vn 0.0000 0.9241 -0.3822
vn -0.0000 0.7076 -0.7066
vn 0.1463 0.9241 -0.3531
vn 0.2704 0.7076 -0.6528
vn 0.2702 0.9241 -0.2702
vn 0.4996 0.7076 -0.4996
vn 0.9237 0.3832 -0.0000
vn 0.8534 0.3832 -0.3535
vn 0.8534 0.3832 0.3535
vn 0.6531 0.3832 0.6531
vn 0.3535 0.3832 0.8534
vn 0.0000 0.3832 0.9237
vn -0.3535 0.3832 0.8534
vn -0.6531 0.3832 0.6531
vn -0.8534 0.3832 0.3535
vn -0.9237 0.3832 0.0000
vn -0.8534 0.3832 -0.3535
vn -0.6531 0.3832 -0.6531
vn -0.3535 0.3832 -0.8534
vn -0.0000 0.3832 -0.9237
vn 0.3535 0.3832 -0.8534
vn 0.6531 0.3832 -0.6531
vn 1.0000 0.0000 -0.0000
vn 0.9239 0.0000 -0.3827
vn 0.9239 -0.0000 0.3827
vn 0.7071 -0.0000 0.7071
vn 0.3827 -0.0000 0.9239
vn 0.0000 0.0000 1.0000
vn -0.3827 0.0000 0.9239
vn -0.7071 0.0000 0.7071
vn -0.9239 -0.0000 0.3827
vn -1.0000 -0.0000 -0.0000
vn -0.9239 0.0000 -0.3827
vn -0.7071 0.0000 -0.7071
vn -0.3827 -0.0000 -0.9239
vn 0.0000 0.0000 -1.0000
vn 0.3827 0.0000 -0.9239
vn 0.7071 0.0000 -0.7071
vn 0.9237 -0.3832 -0.0000
vn 0.8534 -0.3832 -0.3535
vn 0.8534 -0.3832 0.3535
vn 0.6531 -0.3832 0.6531
vn 0.3535 -0.3832 0.8534
vn 0.0000 -0.3832 0.9237
vn -0.3535 -0.3832 0.8534
vn -0.6531 -0.3832 0.6531
vn -0.8534 -0.3832 0.3535
vn -0.9237 -0.3832 0.0000
vn -0.8534 -0.3832 -0.3535
vn -0.6531 -0.3832 -0.6531
vn -0.3535 -0.3832 -0.8534
vn -0.0000 -0.3832 -0.9237
vn 0.3535 -0.3832 -0.8534
vn 0.6531 -0.3832 -0.6531
vn 0.7066 -0.7076 -0.0000
vn 0.6528 -0.7076 -0.2704
vn 0.6528 -0.7076 0.2704
vn 0.4996 -0.7076 0.4996
vn 0.2704 -0.7076 0.6528
vn 0.0000 -0.7076 0.7066
vn -0.2704 -0.7076 0.6528
vn -0.4996 -0.7076 0.4996
vn -0.6528 -0.7076 0.2704
vn -0.7066 -0.7076 0.0000
vn -0.6528 -0.7076 -0.2704
vn -0.4996 -0.7076 -0.4996
vn -0.2704 -0.7076 -0.6528
vn -0.0000 -0.7076 -0.7066
vn 0.2704 -0.7076 -0.6528
vn 0.4996 -0.7076 -0.4996
vn 0.3822 -0.9241 0.0000
vn 0.3531 -0.9241 -0.1463
vn 0.3531 -0.9241 0.1463
vn 0.2702 -0.9241 0.2702
vn 0.1463 -0.9241 0.3531
vn -0.0000 -0.9241 0.3822
vn -0.1463 -0.9241 0.3531
vn -0.2702 -0.9241 0.2702
vn -0.3531 -0.9241 0.1463
vn -0.3822 -0.9241 -0.0000
vn -0.3531 -0.9241 -0.1463
vn -0.2702 -0.9241 -0.2702
vn -0.1463 -0.9241 -0.3531
vn 0.0000 -0.9241 -0.3822
vn 0.1463 -0.9241 -0.3531
vn 0.2702 -0.9241 -0.2702
vn 0.0000 -1.0000 -0.0000
usemtl default
s 1
f 1//1 2//2 3//3 4//4
f 1//1 5//5 6//6
f 6//6 7//7 2//2 1//1
f 6//6 5//5 8//8
f 8//8 9//9 7//7 6//6
f 8//8 5//5 10//10
f 10//10 11//11 9//9 8//8
f 10//10 5//5 12//12
f 12//12 13//13 11//11 10//10
f 12//12 5//5 14//14
f 14//14 15//15 13//13 12//12
f 14//14 5//5 16//16
f 16//16 17//17 15//15 14//14
f 16//16 5//5 18//18
f 18//18 19//19 17//17 16//16
f 18//18 5//5 20//20
f 20//20 21//21 19//19 18//18
f 20//20 5//5 22//22
f 22//22 23//23 21//21 20//20
f 22//22 5//5 24//24
f 24//24 25//25 23//23 22//22
f 24//24 5//5 26//26
f 26//26 27//27 25//25 24//24
f 26//26 5//5 28//28
f 28//28 29//29 27//27 26//26
f 28//28 5//5 30//30
f 30//30 31//31 29//29 28//28
f 30//30 5//5 32//32
f 32//32 33//33 31//31 30//30
f 32//32 5//5 4//4
f 4//4 3//3 33//33 32//32
f 4//4 5//5 1//1
f 2//2 34//34 35//35 3//3
f 7//7 36//36 34//34 2//2
f 9//9 37//37 36//36 7//7
f 11//11 38//38 37//37 9//9
f 13//13 39//39 38//38 11//11
f 15//15 40//40 39//39 13//13
f 17//17 41//41 40//40 15//15
f 19//19 42//42 41//41 17//17
f 21//21 43//43 42//42 19//19
f 23//23 44//44 43//43 21//21
f 25//25 45//45 44//44 23//23
f 27//27 46//46 45//45 25//25
f 29//29 47//47 46//46 27//27
f 31//31 48//48 47//47 29//29
f 33//33 49//49 48//48 31//31
f 3//3 35//35 49//49 33//33
f 34//34 50//50 51//51 35//35
f 36//36 52//52 50//50 34//34
f 37//37 53//53 52//52 36//36
f 38//38 54//54 53//53 37//37
f 39//39 55//55 54//54 38//38
f 40//40 56//56 55//55 39//39
f 41//41 57//57 56//56 40//40
f 42//42 58//58 57//57 41//41
f 43//43 59//59 58//58 42//42
f 44//44 60//60 59//59 43//43
f 45//45 61//61 60//60 44//44
f 46//46 62//62 61//61 45//45
f 47//47 63//63 62//62 46//46
f 48//48 64//64 63//63 47//47
f 49//49 65//65 64//64 48//48
f 35//35 51//51 65//65 49//49
f 50//50 66//66 67//67 51//51
f 52//52 68//68 66//66 50//50
f 53//53 69//69 68//68 52//52
f 54//54 70//70 69//69 53//53
f 55//55 71//71 70//70 54//54
f 56//56 72//72 71//71 55//55
f 57//57 73//73 72//72 56//56
f 58//58 74//74 73//73 57//57
f 59//59 75//75 74//74 58//58
f 60//60 76//76 75//75 59//59
f 61//61 77//77 76//76 60//60
f 62//62 78//78 77//77 61//61
f 63//63 79//79 78//78 62//62
f 64//64 80//80 79//79 63//63
f 65//65 81//81 80//80 64//64
f 51//51 67//67 81//81 65//65
f 66//66 82//82 83//83 67//67
f 68//68 84//84 82//82 66//66
f 69//69 85//85 84//84 68//68
f 70//70 86//86 85//85 69//69
f 71//71 87//87 86//86 70//70
f 72//72 88//88 87//87 71//71
f 73//73 89//89 88//88 72//72
f 74//74 90//90 89//89 73//73
f 75//75 91//91 90//90 74//74
f 76//76 92//92 91//91 75//75
f 77//77 93//93 92//92 76//76
f 78//78 94//94 93//93 77//77
f 79//79 95//95 94//94 78//78
f 80//80 96//96 95//95 79//79
f 81//81 97//97 96//96 80//80
f 67//67 83//83 97//97 81//81
f 82//82 98//98 99//99 83//83
f 84//84 100//100 98//98 82//82
f 85//85 101//101 100//100 84//84
f 86//86 102//102 101//101 85//85
f 87//87 103//103 102//102 86//86
f 88//88 104//104 103//103 87//87
f 89//89 105//105 104//104 88//88
f 90//90 106//106 105//105 89//89
f 91//91 107//107 106//106 90//90
f 92//92 108//108 107//107 91//91
f 93//93 109//109 108//108 92//92
f 94//94 110//110 109//109 93//93
f 95//95 111//111 110//110 94//94
f 96//96 112//112 111//111 95//95
f 97//97 113//113 112//112 96//96
f 83//83 99//99 113//113 97//97
f 98//98 114//114 99//99
f 100//100 114//114 98//98
f 101//101 114//114 100//100
f 102//102 114//114 101//101
f 103//103 114//114 102//102
f 104//104 114//114 103//103
f 105//105 114//114 104//104
f 106//106 114//114 105//105
f 107//107 114//114 106//106
f 108//108 114//114 107//107
f 109//109 114//114 108//108
f 110//110 114//114 109//109
f 111//111 114//114 110//110
f 112//112 114//114 111//111
f 113//113 114//114 112//112
f 99//99 114//114 113//113
